<?xml version="1.0" encoding="UTF-8"?>
<svg id="Camada_1" data-name="Camada 1" xmlns="http://www.w3.org/2000/svg" viewBox="0 0 15.27 14.86">
  <defs>
    <style>
      .cls-1 {
        fill: #913b8d;
      }
    </style>
  </defs>
  <path class="cls-1" d="M8.51,2.31c2.06.33,3.89,1.82,4.13,4.49l2.62.04c-.27-4-3.32-6.47-6.75-6.83v2.31Z"/>
  <path class="cls-1" d="M2.63,6.67c.3-2.58,2.1-4.03,4.11-4.36V0C3.36.35.36,2.75,0,6.63l2.62.04h0Z"/>
  <path class="cls-1" d="M6.74,12.53c-1.97-.32-3.73-1.71-4.09-4.17l-2.64-.04c.4,3.84,3.38,6.19,6.73,6.53v-2.33h0Z"/>
  <path class="cls-1" d="M12.58,8.48c-.4,2.38-2.14,3.72-4.07,4.03v2.33c3.28-.35,6.22-2.63,6.71-6.33l-2.63-.04h0Z"/>
</svg>