<?xml version="1.0" encoding="UTF-8"?>
<svg id="Camada_1" data-name="Camada 1" xmlns="http://www.w3.org/2000/svg" viewBox="0 0 153 18">
  <defs>
    <style>
      .cls-1 {
        fill: #913b8d;
      }

      .cls-2 {
        fill: #fff;
      }
    </style>
  </defs>
  <path class="cls-2" d="M0,16.23V.34h10.48v2.53H2.85v4.46h6.85v2.49H2.85v6.41H0Z"/>
  <path class="cls-2" d="M23.32,10.76c0,3.36-2.54,5.81-6.01,5.81s-5.99-2.44-5.99-5.81,2.54-5.78,5.99-5.78,6.01,2.44,6.01,5.78ZM20.54,10.76c0-2.26-1.52-3.43-3.23-3.43s-3.23,1.17-3.23,3.43,1.54,3.47,3.23,3.47,3.23-1.19,3.23-3.47Z"/>
  <path class="cls-2" d="M27.83,10.76c0,2.2,1.5,3.43,3.23,3.43s2.64-1.19,2.9-2.02l2.42.83c-.55,1.7-2.28,3.56-5.32,3.56-3.4,0-5.99-2.49-5.99-5.81s2.59-5.78,5.92-5.78c3.11,0,4.83,1.84,5.3,3.59l-2.47.85c-.26-.96-1.05-2.04-2.8-2.04s-3.18,1.19-3.18,3.38Z"/>
  <path class="cls-2" d="M42.93,16.54c-2.76,0-4.37-1.93-4.37-4.35v-6.88h2.76v6.41c0,1.34.67,2.49,2.33,2.49s2.42-1.01,2.42-2.44v-6.46h2.76v8.92c0,.9.07,1.59.12,1.99h-2.64c-.05-.25-.09-.76-.09-1.21-.57.99-1.93,1.52-3.28,1.52Z"/>
  <path class="cls-2" d="M53.77,12.64c.1.99.88,1.86,2.35,1.86,1.14,0,1.74-.58,1.74-1.26,0-.58-.43-1.03-1.35-1.21l-1.71-.36c-2.04-.43-3.11-1.68-3.11-3.18,0-1.91,1.85-3.52,4.25-3.52,3.23,0,4.28,1.97,4.47,3.05l-2.33.63c-.1-.63-.59-1.64-2.14-1.64-.97,0-1.66.58-1.66,1.26,0,.58.45,1.01,1.16,1.14l1.76.34c2.19.45,3.33,1.7,3.33,3.32s-1.43,3.5-4.37,3.5c-3.35,0-4.63-2.06-4.78-3.3l2.4-.63Z"/>
  <path class="cls-2" d="M85.14,16.23h-2.76V5.31h2.69v1.46c.76-1.26,2.14-1.77,3.42-1.77,2.83,0,4.18,1.93,4.18,4.33v6.9h-2.76v-6.46c0-1.34-.64-2.42-2.38-2.42-1.57,0-2.4,1.14-2.4,2.58v6.3Z"/>
  <path class="cls-2" d="M102.87,2.87v13.36h-2.85V2.87h-5.47V.34h13.81v2.53h-5.49Z"/>
  <path class="cls-2" d="M111.21,9.97l2.97-.43c.67-.09.86-.4.86-.78,0-.92-.67-1.66-2.19-1.66s-2.26.87-2.38,1.97l-2.52-.54c.21-1.88,2.02-3.56,4.87-3.56,3.56,0,4.92,1.91,4.92,4.08v5.42c0,.99.12,1.64.14,1.75h-2.57c-.02-.07-.12-.52-.12-1.39-.55.83-1.69,1.73-3.56,1.73-2.42,0-3.92-1.57-3.92-3.3,0-1.95,1.52-3.03,3.49-3.29ZM115.04,11.7v-.49l-3.02.43c-.86.13-1.55.58-1.55,1.48,0,.74.59,1.41,1.69,1.41,1.55,0,2.88-.7,2.88-2.82Z"/>
  <path class="cls-2" d="M122.46,12.64c.1.99.88,1.86,2.35,1.86,1.14,0,1.74-.58,1.74-1.26,0-.58-.43-1.03-1.35-1.21l-1.71-.36c-2.04-.43-3.11-1.68-3.11-3.18,0-1.91,1.85-3.52,4.25-3.52,3.23,0,4.28,1.97,4.47,3.05l-2.33.63c-.09-.63-.59-1.64-2.14-1.64-.97,0-1.66.58-1.66,1.26,0,.58.45,1.01,1.16,1.14l1.76.34c2.19.45,3.33,1.7,3.33,3.32s-1.43,3.5-4.37,3.5c-3.35,0-4.63-2.06-4.78-3.3l2.4-.63Z"/>
  <path class="cls-2" d="M138.03,9.93l4.85,6.3h-3.38l-3.4-4.46-1.43,1.41v3.05h-2.73V0h2.73v9.73l4.44-4.42h3.66l-4.75,4.62Z"/>
  <path class="cls-2" d="M146.25,12.64c.1.99.88,1.86,2.35,1.86,1.14,0,1.74-.58,1.74-1.26,0-.58-.43-1.03-1.35-1.21l-1.71-.36c-2.04-.43-3.11-1.68-3.11-3.18,0-1.91,1.85-3.52,4.25-3.52,3.23,0,4.28,1.97,4.47,3.05l-2.33.63c-.09-.63-.59-1.64-2.14-1.64-.97,0-1.66.58-1.66,1.26,0,.58.45,1.01,1.16,1.14l1.76.34c2.19.45,3.33,1.7,3.33,3.32s-1.43,3.5-4.37,3.5c-3.35,0-4.63-2.06-4.78-3.3l2.4-.63Z"/>
  <g>
    <path class="cls-1" d="M72.43,4.1c2.3.37,4.35,2.02,4.62,4.97l2.93.04c-.3-4.43-3.71-7.17-7.55-7.57v2.56Z"/>
    <path class="cls-1" d="M65.85,8.93c.33-2.86,2.35-4.47,4.6-4.83V1.54c-3.78.39-7.14,3.05-7.54,7.35l2.93.04Z"/>
    <path class="cls-1" d="M70.45,15.42c-2.2-.35-4.17-1.89-4.57-4.62l-2.95-.04c.45,4.25,3.78,6.86,7.53,7.24v-2.58Z"/>
    <path class="cls-1" d="M76.98,10.94c-.45,2.64-2.39,4.12-4.55,4.47v2.58c3.67-.39,6.95-2.91,7.5-7.01l-2.94-.04Z"/>
  </g>
</svg>